<svg width="20" height="21" viewBox="0 0 20 21" fill="none" xmlns="http://www.w3.org/2000/svg">
<path d="M4.23056 14.8384C4.23056 14.8384 5.02061 13.2456 6.17067 13.2456C7.32072 13.2456 7.9084 14.5834 9.18299 14.5834C10.4566 14.5834 11.8859 11.2286 13.3298 11.2286C14.7717 11.2286 15.8089 13.555 15.8089 13.555" stroke="currentColor" stroke-width="1.5" stroke-linecap="round" stroke-linejoin="round"/>
<path fill-rule="evenodd" clip-rule="evenodd" d="M8.18929 7.68307C8.18929 8.51982 7.51113 9.19896 6.6734 9.19896C5.83664 9.19896 5.15848 8.51982 5.15848 7.68307C5.15848 6.84631 5.83664 6.16718 6.6734 6.16718C7.51113 6.16815 8.18929 6.84631 8.18929 7.68307Z" stroke="currentColor" stroke-width="1.5" stroke-linecap="round" stroke-linejoin="round"/>
<path fill-rule="evenodd" clip-rule="evenodd" d="M1 10.5C1 17.2495 3.25049 19.5 10 19.5C16.7495 19.5 19 17.2495 19 10.5C19 3.75049 16.7495 1.5 10 1.5C3.25049 1.5 1 3.75049 1 10.5Z" stroke="currentColor" stroke-width="1.5" stroke-linecap="round" stroke-linejoin="round"/>
</svg>
