<svg width="280" height="294" viewBox="0 0 280 294" fill="none" xmlns="http://www.w3.org/2000/svg">
<path d="M7 256.816V8.20951C7 7.58185 7.58283 7.11145 8.19881 7.23193C62.5049 17.8539 92.3787 39.5736 142.597 112.106C142.981 112.662 143.808 112.703 144.223 112.169L198.716 42.0041C199.168 41.4226 200.079 41.5246 200.412 42.1811C216.061 73.0067 230.318 83.7929 271.169 80.8302C271.75 80.7881 272.263 81.2459 272.263 81.8287V256.866C272.263 256.951 272.252 257.037 272.231 257.119C262.154 295.695 209.828 298.191 194.748 257.162C194.708 257.053 194.686 256.934 194.686 256.817V205.745C194.686 176.996 182.174 228.244 138.38 228.244C103.346 228.244 82.0745 175.746 84.577 205.745V256.75C84.577 256.91 84.537 257.071 84.4632 257.213C64.422 295.679 20.8697 294.425 7.06258 257.163C7.02173 257.053 7 256.933 7 256.816Z" stroke="white" stroke-width="14"/>
</svg>
